<svg version="1.1" viewBox="0.0 0.0 960.0 720.0" fill="none" stroke="none" stroke-linecap="square" stroke-miterlimit="10" xmlns:xlink="http://www.w3.org/1999/xlink" xmlns="http://www.w3.org/2000/svg"><clipPath id="p.0"><path d="m0 0l960.0 0l0 720.0l-960.0 0l0 -720.0z" clip-rule="nonzero"/></clipPath><g clip-path="url(#p.0)"><path fill="#000000" fill-opacity="0.0" d="m0 0l960.0 0l0 720.0l-960.0 0z" fill-rule="evenodd"/><path fill="#000000" fill-opacity="0.0" d="m295.3386 399.32022l342.51968 0l0 42.015747l-342.51968 0z" fill-rule="evenodd"/><path fill="#ff9900" d="m433.0773 94.95006c13.730743 -3.6540833 28.434692 -1.3031387 44.111847 7.0528336c15.642853 8.365112 30.817047 21.944466 45.522583 40.73803l-15.668274 36.636337c-9.965454 -14.518082 -20.070312 -25.14 -30.314514 -31.865707c-10.278564 -6.7165985 -19.622864 -8.955826 -28.032959 -6.717697c-7.1743164 1.909256 -13.054596 5.7113037 -17.6409 11.406113c-4.586273 5.694824 -7.5300293 12.658356 -8.831238 20.89058c-1.3355103 8.241379 -0.76620483 17.010498 1.7079163 26.307404c1.8903503 7.103241 4.4761963 13.573959 7.7575073 19.41217c3.2330933 5.7951202 7.1584167 11.014526 11.77597 15.658203c4.603607 4.591446 9.892517 8.581055 15.866699 11.968857c5.974182 3.3877869 12.774628 6.220108 20.401337 8.496979c7.5923767 2.2859955 15.931732 3.925766 25.018066 4.9193573l9.838013 70.11719l-24.354889 6.481415l-16.884766 -41.899445c-9.6397705 -2.2445068 -18.933563 -5.9513245 -27.881348 -11.120483c-8.96167 -5.221405 -17.263916 -11.6250305 -24.906647 -19.210815c-7.6770935 -7.576721 -14.281525 -16.026123 -19.813263 -25.34822c-5.545685 -9.374329 -9.729309 -19.362823 -12.550934 -29.96547c-4.781494 -17.96701 -5.9666443 -34.989532 -3.5554504 -51.06755c2.3629456 -16.121094 7.7085876 -29.73616 16.036896 -40.8452c8.314392 -11.1612625 19.113861 -18.509552 32.398346 -22.044876zm79.966095 272.51282c6.5563965 -1.744812 12.739258 0.21716309 18.548584 5.8859863c5.7749634 5.677948 10.073242 13.818237 12.894897 24.420868c3.0718384 11.542786 3.553711 20.950378 1.4457397 28.222809c-2.142334 7.2815857 -6.697632 11.849609 -13.666016 13.704041c-6.5220947 1.7356873 -12.687805 -0.23086548 -18.497131 -5.8996887c-5.809265 -5.6688232 -10.124725 -13.804535 -12.946381 -24.407166c-3.0718079 -11.542786 -3.53656 -20.954956 -1.3942261 -28.236511c2.1423035 -7.2815857 6.680481 -11.845032 13.614532 -13.690338z" fill-rule="evenodd"/><path stroke="#ff9900" stroke-width="1.0" stroke-linejoin="round" stroke-linecap="butt" d="m433.0773 94.95006c13.730743 -3.6540833 28.434692 -1.3031387 44.111847 7.0528336c15.642853 8.365112 30.817047 21.944466 45.522583 40.73803l-15.668274 36.636337c-9.965454 -14.518082 -20.070312 -25.14 -30.314514 -31.865707c-10.278564 -6.7165985 -19.622864 -8.955826 -28.032959 -6.717697c-7.1743164 1.909256 -13.054596 5.7113037 -17.6409 11.406113c-4.586273 5.694824 -7.5300293 12.658356 -8.831238 20.89058c-1.3355103 8.241379 -0.76620483 17.010498 1.7079163 26.307404c1.8903503 7.103241 4.4761963 13.573959 7.7575073 19.41217c3.2330933 5.7951202 7.1584167 11.014526 11.77597 15.658203c4.603607 4.591446 9.892517 8.581055 15.866699 11.968857c5.974182 3.3877869 12.774628 6.220108 20.401337 8.496979c7.5923767 2.2859955 15.931732 3.925766 25.018066 4.9193573l9.838013 70.11719l-24.354889 6.481415l-16.884766 -41.899445c-9.6397705 -2.2445068 -18.933563 -5.9513245 -27.881348 -11.120483c-8.96167 -5.221405 -17.263916 -11.6250305 -24.906647 -19.210815c-7.6770935 -7.576721 -14.281525 -16.026123 -19.813263 -25.34822c-5.545685 -9.374329 -9.729309 -19.362823 -12.550934 -29.96547c-4.781494 -17.96701 -5.9666443 -34.989532 -3.5554504 -51.06755c2.3629456 -16.121094 7.7085876 -29.73616 16.036896 -40.8452c8.314392 -11.1612625 19.113861 -18.509552 32.398346 -22.044876zm79.966095 272.51282c6.5563965 -1.744812 12.739258 0.21716309 18.548584 5.8859863c5.7749634 5.677948 10.073242 13.818237 12.894897 24.420868c3.0718384 11.542786 3.553711 20.950378 1.4457397 28.222809c-2.142334 7.2815857 -6.697632 11.849609 -13.666016 13.704041c-6.5220947 1.7356873 -12.687805 -0.23086548 -18.497131 -5.8996887c-5.809265 -5.6688232 -10.124725 -13.804535 -12.946381 -24.407166c-3.0718079 -11.542786 -3.53656 -20.954956 -1.3942261 -28.236511c2.1423035 -7.2815857 6.680481 -11.845032 13.614532 -13.690338z" fill-rule="evenodd"/><path fill="#0000ff" d="m605.75757 27.512535c-14.133301 -2.2830086 -28.54071 0.945961 -43.222168 9.686916c-14.646057 8.746662 -28.218506 22.18121 -40.717346 40.303616l19.899414 32.01264c8.2630005 -13.895325 17.117737 -24.272018 26.56427 -31.13005c9.481873 -6.8523483 18.551147 -9.579338 27.207825 -8.181c7.3847046 1.1928711 13.697327 4.196953 18.937866 9.012222c5.2405396 4.815262 8.988586 10.9025345 11.24408 18.261787c2.2908325 7.3649597 2.74115 15.350388 1.3509521 23.956299c-1.0621338 6.575302 -2.8920898 12.629684 -5.489929 18.163177c-2.5547485 5.4908295 -5.8674316 10.511963 -9.938171 15.0634c-4.062866 4.503067 -8.879883 8.512253 -14.450928 12.027588c-5.571106 3.5153046 -12.031677 6.589279 -19.381714 9.221939c-7.3146973 2.6383362 -15.450256 4.747223 -24.406677 6.3266296l-1.6766968 64.24611l25.06903 4.0494843l11.990295 -39.21411c9.363647 -2.7538605 18.211975 -6.8063965 26.544983 -12.157593c8.34082 -5.3995514 15.885925 -11.820618 22.635193 -19.263184c6.784668 -7.436859 12.396973 -15.584 16.836914 -24.441391c4.447815 -8.905731 7.4644165 -18.2659 9.049805 -28.08052c2.6865845 -16.63163 1.892273 -32.13884 -2.3828735 -46.5216c-4.2319946 -14.425392 -11.150818 -26.357853 -20.756409 -35.79736c-9.597778 -9.487854 -21.233643 -15.336191 -34.907715 -17.545002zm-48.180115 252.81516c-6.7487183 -1.0901184 -12.693787 1.149353 -17.835266 6.718445c-5.10614 5.574768 -8.451904 13.26947 -10.0372925 23.084076c-1.7260132 10.6848755 -1.1142578 19.242065 1.8352661 25.67163c2.9848022 6.435272 8.063599 10.232239 15.236267 11.390869c6.713318 1.0844116 12.640747 -1.1579285 17.782227 -6.7269897c5.1414795 -5.569092 8.504883 -13.260925 10.090332 -23.075531c1.7259521 -10.6848755 1.0965576 -19.244934 -1.8883057 -25.680206c-2.9848022 -6.435272 -8.045898 -10.22937 -15.183228 -11.382294z" fill-rule="evenodd"/><path stroke="#0000ff" stroke-width="1.0" stroke-linejoin="round" stroke-linecap="butt" d="m605.75757 27.512535c-14.133301 -2.2830086 -28.54071 0.945961 -43.222168 9.686916c-14.646057 8.746662 -28.218506 22.18121 -40.717346 40.303616l19.899414 32.01264c8.2630005 -13.895325 17.117737 -24.272018 26.56427 -31.13005c9.481873 -6.8523483 18.551147 -9.579338 27.207825 -8.181c7.3847046 1.1928711 13.697327 4.196953 18.937866 9.012222c5.2405396 4.815262 8.988586 10.9025345 11.24408 18.261787c2.2908325 7.3649597 2.74115 15.350388 1.3509521 23.956299c-1.0621338 6.575302 -2.8920898 12.629684 -5.489929 18.163177c-2.5547485 5.4908295 -5.8674316 10.511963 -9.938171 15.0634c-4.062866 4.503067 -8.879883 8.512253 -14.450928 12.027588c-5.571106 3.5153046 -12.031677 6.589279 -19.381714 9.221939c-7.3146973 2.6383362 -15.450256 4.747223 -24.406677 6.3266296l-1.6766968 64.24611l25.06903 4.0494843l11.990295 -39.21411c9.363647 -2.7538605 18.211975 -6.8063965 26.544983 -12.157593c8.34082 -5.3995514 15.885925 -11.820618 22.635193 -19.263184c6.784668 -7.436859 12.396973 -15.584 16.836914 -24.441391c4.447815 -8.905731 7.4644165 -18.2659 9.049805 -28.08052c2.6865845 -16.63163 1.892273 -32.13884 -2.3828735 -46.5216c-4.2319946 -14.425392 -11.150818 -26.357853 -20.756409 -35.79736c-9.597778 -9.487854 -21.233643 -15.336191 -34.907715 -17.545002zm-48.180115 252.81516c-6.7487183 -1.0901184 -12.693787 1.149353 -17.835266 6.718445c-5.10614 5.574768 -8.451904 13.26947 -10.0372925 23.084076c-1.7260132 10.6848755 -1.1142578 19.242065 1.8352661 25.67163c2.9848022 6.435272 8.063599 10.232239 15.236267 11.390869c6.713318 1.0844116 12.640747 -1.1579285 17.782227 -6.7269897c5.1414795 -5.569092 8.504883 -13.260925 10.090332 -23.075531c1.7259521 -10.6848755 1.0965576 -19.244934 -1.8883057 -25.680206c-2.9848022 -6.435272 -8.045898 -10.22937 -15.183228 -11.382294z" fill-rule="evenodd"/></g></svg>