<svg version="1.1" viewBox="0.0 0.0 960.0 720.0" fill="none" stroke="none" stroke-linecap="square" stroke-miterlimit="10" xmlns:xlink="http://www.w3.org/1999/xlink" xmlns="http://www.w3.org/2000/svg"><clipPath id="p.0"><path d="m0 0l960.0 0l0 720.0l-960.0 0l0 -720.0z" clip-rule="nonzero"/></clipPath><g clip-path="url(#p.0)"><path fill="#000000" fill-opacity="0.0" d="m0 0l960.0 0l0 720.0l-960.0 0z" fill-rule="evenodd"/><path fill="#ffffff" d="m359.99908 240.0012l240.0 0l0 239.99998l-240.0 0z" fill-rule="evenodd"/><path stroke="#7fbe7f" stroke-width="4.0" stroke-linejoin="round" stroke-linecap="butt" d="m359.99908 240.0012l240.0 0l0 239.99998l-240.0 0z" fill-rule="evenodd"/><path fill="#000000" fill-opacity="0.0" d="m483.77167 308.30972l90.236206 0l0 56.629913l-90.236206 0z" fill-rule="evenodd"/><path fill="#00d8ff" d="m522.79535 342.9097l0 -18.953125l6.1875 0q3.09375 0 4.640625 1.28125q1.5625 1.265625 1.5625 3.765625q0 1.328125 -0.765625 2.359375q-0.75 1.015625 -2.046875 1.578125q1.53125 0.421875 2.421875 1.640625q0.890625 1.203125 0.890625 2.859375q0 2.546875 -1.65625 4.015625q-1.640625 1.453125 -4.671875 1.453125l-6.5625 0zm2.5 -8.859375l0 6.8125l4.125 0q1.734375 0 2.75 -0.90625q1.015625 -0.90625 1.015625 -2.484375q0 -3.421875 -3.734375 -3.421875l-4.15625 0zm0 -2.015625l3.765625 0q1.640625 0 2.625 -0.8125q0.984375 -0.828125 0.984375 -2.21875q0 -1.5625 -0.921875 -2.265625q-0.90625 -0.71875 -2.765625 -0.71875l-3.6875 0l0 6.015625z" fill-rule="nonzero"/><path fill="#ffa500" d="m529.56836 293.7586c-14.968933 3.0517578E-5 -27.127777 3.6251526 -36.47647 10.875366c-9.32132 7.2259827 -14.064209 16.731262 -14.228699 28.51587l22.823486 -3.0517578E-5c0 -6.619751 2.549652 -11.893738 7.6489563 -15.82196c5.099304 -3.9282227 11.843506 -5.892334 20.232727 -5.892334c8.635864 -3.0517578E-5 15.215637 2.170166 19.739197 6.5105896c4.5235596 4.316162 6.7854004 10.293335 6.7854004 17.931488c0 7.9291687 -3.4544067 15.349121 -10.363098 22.259857l-16.161499 14.730804c-6.333008 6.1105347 -10.527588 11.675507 -12.583801 16.694885c-2.0561523 5.0193787 -3.166504 11.857361 -3.3309937 20.513947l22.823486 -3.0517578E-5c0 -11.057159 3.0020142 -19.531921 9.0060425 -25.424225l13.447327 -11.784637c13.324036 -12.366608 19.986023 -24.91504 19.986023 -37.645325c0 -12.875793 -4.345398 -22.99939 -13.036133 -30.37082c-8.66333 -7.3956604 -20.767334 -11.093506 -36.31195 -11.093445zm-3.4544067 139.3421c-4.441284 0 -7.7997437 1.1154175 -10.075195 3.346283c-2.248108 2.2065735 -3.3721313 4.9466248 -3.3721313 8.220123c0 3.2734985 1.1240234 5.9892883 3.3721313 8.147369c2.2754517 2.13385 5.633911 3.2007446 10.075195 3.2007446c4.441345 0 7.8134766 -1.0669556 10.116394 -3.2007751c2.3029175 -2.1581116 3.4543457 -4.8739014 3.4543457 -8.1474c0 -3.2734985 -1.1514282 -6.01355 -3.4543457 -8.220123c-2.3029175 -2.230835 -5.675049 -3.346222 -10.116394 -3.346222z" fill-rule="evenodd"/><path stroke="#ffa500" stroke-width="4.0" stroke-linejoin="round" stroke-linecap="butt" d="m529.56836 293.7586c-14.968933 3.0517578E-5 -27.127777 3.6251526 -36.47647 10.875366c-9.32132 7.2259827 -14.064209 16.731262 -14.228699 28.51587l22.823486 -3.0517578E-5c0 -6.619751 2.549652 -11.893738 7.6489563 -15.82196c5.099304 -3.9282227 11.843506 -5.892334 20.232727 -5.892334c8.635864 -3.0517578E-5 15.215637 2.170166 19.739197 6.5105896c4.5235596 4.316162 6.7854004 10.293335 6.7854004 17.931488c0 7.9291687 -3.4544067 15.349121 -10.363098 22.259857l-16.161499 14.730804c-6.333008 6.1105347 -10.527588 11.675507 -12.583801 16.694885c-2.0561523 5.0193787 -3.166504 11.857361 -3.3309937 20.513947l22.823486 -3.0517578E-5c0 -11.057159 3.0020142 -19.531921 9.0060425 -25.424225l13.447327 -11.784637c13.324036 -12.366608 19.986023 -24.91504 19.986023 -37.645325c0 -12.875793 -4.345398 -22.99939 -13.036133 -30.37082c-8.66333 -7.3956604 -20.767334 -11.093506 -36.31195 -11.093445zm-3.4544067 139.3421c-4.441284 0 -7.7997437 1.1154175 -10.075195 3.346283c-2.248108 2.2065735 -3.3721313 4.9466248 -3.3721313 8.220123c0 3.2734985 1.1240234 5.9892883 3.3721313 8.147369c2.2754517 2.13385 5.633911 3.2007446 10.075195 3.2007446c4.441345 0 7.8134766 -1.0669556 10.116394 -3.2007751c2.3029175 -2.1581116 3.4543457 -4.8739014 3.4543457 -8.1474c0 -3.2734985 -1.1514282 -6.01355 -3.4543457 -8.220123c-2.3029175 -2.230835 -5.675049 -3.346222 -10.116394 -3.346222z" fill-rule="evenodd"/><path fill="#000000" fill-opacity="0.0" d="m383.71777 280.61417l90.23624 0l0 56.881897l-90.23624 0z" fill-rule="evenodd"/><path fill="#ffa500" d="m428.71008 306.76105q-3.21875 -0.921875 -4.6875 -2.265625q-1.453125 -1.34375 -1.453125 -3.328125q0 -2.234375 1.78125 -3.703125q1.796875 -1.46875 4.65625 -1.46875q1.953125 0 3.484375 0.765625q1.53125 0.75 2.359375 2.078125q0.84375 1.328125 0.84375 2.90625l-2.5 0q0 -1.71875 -1.09375 -2.703125q-1.09375 -0.984375 -3.09375 -0.984375q-1.84375 0 -2.875 0.8125q-1.03125 0.8125 -1.03125 2.265625q0 1.15625 0.96875 1.953125q0.984375 0.796875 3.34375 1.46875q2.375 0.65625 3.703125 1.46875q1.328125 0.796875 1.96875 1.859375q0.65625 1.0625 0.65625 2.515625q0 2.296875 -1.796875 3.6875q-1.796875 1.390625 -4.796875 1.390625q-1.953125 0 -3.65625 -0.75q-1.6875 -0.75 -2.609375 -2.046875q-0.90625 -1.3125 -0.90625 -2.96875l2.5 0q0 1.71875 1.265625 2.71875q1.28125 1.0 3.40625 1.0q1.96875 0 3.015625 -0.796875q1.0625 -0.8125 1.0625 -2.203125q0 -1.40625 -0.984375 -2.15625q-0.96875 -0.765625 -3.53125 -1.515625z" fill-rule="nonzero"/><path fill="#00d8ff" d="m428.15836 264.00043c14.968933 3.0517578E-5 27.127747 3.6251526 36.47647 10.875366c9.32132 7.2259827 14.064209 16.731293 14.228699 28.5159l-22.823486 -6.1035156E-5c0 -6.619751 -2.549652 -11.893738 -7.6489563 -15.82193c-5.099304 -3.9282227 -11.843536 -5.892334 -20.232727 -5.8923645c-8.635895 0 -15.215637 2.1701965 -19.739227 6.5105896c-4.5235596 4.316162 -6.78537 10.293335 -6.78537 17.931519c0 7.929138 3.4543762 15.349091 10.363098 22.259827l16.161499 14.730804c6.333008 6.110565 10.527618 11.675507 12.583771 16.694885c2.0561829 5.0193787 3.166504 11.857361 3.3309937 20.513977l-22.823486 -6.1035156E-5c0 -11.057159 -3.0020142 -19.53189 -9.006012 -25.424225l-13.447357 -11.784637c-13.324005 -12.366577 -19.985992 -24.91504 -19.985992 -37.645325c0 -12.875763 4.3453674 -22.99939 13.036133 -30.370789c8.66333 -7.395691 20.767334 -11.093506 36.31195 -11.093475zm3.4543762 139.3421c4.441345 3.0517578E-5 7.7997437 1.115448 10.075226 3.346283c2.248108 2.2065735 3.3721313 4.9466248 3.3721313 8.220123c0 3.273529 -1.1240234 5.9892883 -3.3721313 8.1474c-2.2754822 2.1338196 -5.6338806 3.2007446 -10.075226 3.200714c-4.4413147 0 -7.813446 -1.066925 -10.116364 -3.2007751c-2.302887 -2.158081 -3.4543457 -4.873871 -3.4543457 -8.147369c0 -3.273529 1.1514587 -6.01355 3.4543457 -8.220123c2.3029175 -2.230835 5.675049 -3.3462524 10.116364 -3.3462524z" fill-rule="evenodd"/><path stroke="#00d8ff" stroke-width="4.0" stroke-linejoin="round" stroke-linecap="butt" d="m428.15836 264.00043c14.968933 3.0517578E-5 27.127747 3.6251526 36.47647 10.875366c9.32132 7.2259827 14.064209 16.731293 14.228699 28.5159l-22.823486 -6.1035156E-5c0 -6.619751 -2.549652 -11.893738 -7.6489563 -15.82193c-5.099304 -3.9282227 -11.843536 -5.892334 -20.232727 -5.8923645c-8.635895 0 -15.215637 2.1701965 -19.739227 6.5105896c-4.5235596 4.316162 -6.78537 10.293335 -6.78537 17.931519c0 7.929138 3.4543762 15.349091 10.363098 22.259827l16.161499 14.730804c6.333008 6.110565 10.527618 11.675507 12.583771 16.694885c2.0561829 5.0193787 3.166504 11.857361 3.3309937 20.513977l-22.823486 -6.1035156E-5c0 -11.057159 -3.0020142 -19.53189 -9.006012 -25.424225l-13.447357 -11.784637c-13.324005 -12.366577 -19.985992 -24.91504 -19.985992 -37.645325c0 -12.875763 4.3453674 -22.99939 13.036133 -30.370789c8.66333 -7.395691 20.767334 -11.093506 36.31195 -11.093475zm3.4543762 139.3421c4.441345 3.0517578E-5 7.7997437 1.115448 10.075226 3.346283c2.248108 2.2065735 3.3721313 4.9466248 3.3721313 8.220123c0 3.273529 -1.1240234 5.9892883 -3.3721313 8.1474c-2.2754822 2.1338196 -5.6338806 3.2007446 -10.075226 3.200714c-4.4413147 0 -7.813446 -1.066925 -10.116364 -3.2007751c-2.302887 -2.158081 -3.4543457 -4.873871 -3.4543457 -8.147369c0 -3.273529 1.1514587 -6.01355 3.4543457 -8.220123c2.3029175 -2.230835 5.675049 -3.3462524 10.116364 -3.3462524z" fill-rule="evenodd"/></g></svg>